<svg xmlns="http://www.w3.org/2000/svg" viewBox="0 0 640 480" fill="none">
  <rect width="640" height="480" fill="#f5f6f8"/>
  <rect x="24" y="24" width="592" height="432" rx="16" fill="#fff" stroke="#e5e7eb"/>
  <!-- Hilos coloridos -->
  <circle cx="120" cy="200" r="48" fill="#3498db"/><circle cx="120" cy="200" r="28" fill="#2980b9"/>
  <circle cx="200" cy="240" r="42" fill="#e74c3c"/><circle cx="200" cy="240" r="24" fill="#c0392b"/>
  <circle cx="280" cy="180" r="40" fill="#f1c40f"/><circle cx="280" cy="180" r="22" fill="#d4ac0d"/>
  <circle cx="360" cy="220" r="44" fill="#9b59b6"/><circle cx="360" cy="220" r="26" fill="#6332c7"/>
  <rect x="95" y="120" width="18" height="90" rx="5" fill="#2ecc71"/>
  <!-- Tijeras -->
  <ellipse cx="480" cy="280" rx="55" ry="18" fill="#95a5a6" transform="rotate(-25 480 280)"/>
  <circle cx="430" cy="250" r="14" fill="#7f8c8d"/><circle cx="520" cy="300" r="14" fill="#7f8c8d"/>
  <!-- Agujas / paquete -->
  <rect x="400" y="120" width="90" height="70" rx="6" fill="#fff" stroke="#d1d5db" stroke-width="2"/>
  <line x1="420" y1="145" x2="470" y2="175" stroke="#6332c7" stroke-width="2"/>
  <line x1="435" y1="140" x2="455" y2="180" stroke="#9ca3af" stroke-width="1.5"/>
  <!-- Cinta mťtrica -->
  <rect x="80" y="320" width="180" height="28" rx="4" fill="#f1c40f" stroke="#d4ac0d"/>
  <text x="140" y="338" text-anchor="middle" font-size="11" fill="#7d6608" font-family="sans-serif">150 cm</text>
  <!-- Carretes -->
  <circle cx="520" cy="160" r="32" stroke="#adb5bd" stroke-width="5" fill="#ecf0f1"/>
  <circle cx="520" cy="160" r="10" fill="#7f8c8d"/>
  <!-- Cierre -->
  <rect x="300" y="300" width="120" height="12" rx="2" fill="#34495e"/>
  <rect x="310" y="295" width="8" height="22" rx="2" fill="#7f8c8d"/>
</svg>
